<svg xmlns="http://www.w3.org/2000/svg" viewBox="0 0 24 24" height="24" width="24"><g><path d="M2 15.42h8.61a1 1 0 0 0 0 -2H2.5a0.5 0.5 0 0 1 -0.5 -0.5l0 -6a0.54 0.54 0 0 1 0.14 -0.36 0.54 0.54 0 0 1 0.36 -0.14h19a0.5 0.5 0 0 1 0.5 0.5v3.5a1 1 0 1 0 2 0v-4a2 2 0 0 0 -2 -2H2a2 2 0 0 0 -2 2v7a2 2 0 0 0 2 2Z" fill="#1e293b" stroke-width="1"></path><path d="M8 8.41a0.75 0.75 0 0 0 -1 -0.22l-0.12 0.09a0.27 0.27 0 0 1 -0.26 0 0.26 0.26 0 0 1 -0.13 -0.22v-0.14a0.75 0.75 0 0 0 -1.5 0v0.13a0.26 0.26 0 0 1 -0.13 0.22 0.27 0.27 0 0 1 -0.26 0l-0.11 -0.08a0.75 0.75 0 0 0 -0.83 1.25L4 9.7a0.26 0.26 0 0 1 0 0.42l-0.41 0.27a0.74 0.74 0 0 0 -0.22 1 0.77 0.77 0 0 0 0.63 0.34 0.78 0.78 0 0 0 0.41 -0.12l0.12 -0.08a0.24 0.24 0 0 1 0.26 0 0.25 0.25 0 0 1 0.13 0.22v0.15a0.75 0.75 0 0 0 1.5 0v-0.13a0.24 0.24 0 0 1 0.13 -0.22 0.24 0.24 0 0 1 0.26 0l0.11 0.07a0.71 0.71 0 0 0 0.41 0.13 0.75 0.75 0 0 0 0.42 -1.38l-0.4 -0.27a0.24 0.24 0 0 1 -0.12 -0.21 0.24 0.24 0 0 1 0.12 -0.2l0.41 -0.27A0.75 0.75 0 0 0 8 8.41Z" fill="#1e293b" stroke-width="1"></path><path d="M12.33 12.67a0.76 0.76 0 0 0 0.75 -0.75v-0.13a0.24 0.24 0 0 1 0.13 -0.22 0.24 0.24 0 0 1 0.26 0l0.11 0.07a0.69 0.69 0 0 0 0.41 0.13 0.75 0.75 0 0 0 0.42 -1.38l-0.41 -0.26a0.24 0.24 0 0 1 -0.11 -0.21 0.23 0.23 0 0 1 0.11 -0.2l0.41 -0.27a0.75 0.75 0 0 0 -0.82 -1.26l-0.13 0.09a0.25 0.25 0 0 1 -0.25 0 0.26 0.26 0 0 1 -0.13 -0.22v-0.14a0.75 0.75 0 0 0 -1.5 0v0.13a0.26 0.26 0 0 1 -0.13 0.22 0.27 0.27 0 0 1 -0.26 0l-0.11 -0.08a0.75 0.75 0 0 0 -1 0.21 0.74 0.74 0 0 0 0.21 1l0.4 0.27a0.27 0.27 0 0 1 0.12 0.21 0.3 0.3 0 0 1 -0.12 0.21l-0.41 0.27a0.75 0.75 0 0 0 0.42 1.37 0.78 0.78 0 0 0 0.41 -0.12l0.12 -0.08a0.24 0.24 0 0 1 0.26 0 0.25 0.25 0 0 1 0.13 0.22v0.15a0.75 0.75 0 0 0 0.71 0.77Z" fill="#1e293b" stroke-width="1"></path><path d="M22.66 15.52a0.26 0.26 0 0 1 -0.21 -0.25v-1a3.5 3.5 0 0 0 -7 0v1a0.26 0.26 0 0 1 -0.21 0.25A1.5 1.5 0 0 0 14 17v5.5a1.5 1.5 0 0 0 1.5 1.5h7a1.5 1.5 0 0 0 1.5 -1.5V17a1.5 1.5 0 0 0 -1.34 -1.48ZM20 20.25a1 1 0 1 1 -1 -1 1 1 0 0 1 1 1Zm-2.5 -6a1.5 1.5 0 0 1 3 0v1a0.25 0.25 0 0 1 -0.25 0.25H17.7a0.25 0.25 0 0 1 -0.25 -0.25Z" fill="#1e293b" stroke-width="1"></path></g></svg>